<svg width="60" height="61" viewBox="0 0 60 61" fill="none" xmlns="http://www.w3.org/2000/svg">
<g clip-path="url(#clip0_1_140)">
<path d="M60 30.9375C60 14.369 46.5685 0.9375 30 0.9375C13.4315 0.9375 0 14.369 0 30.9375C0 47.506 13.4315 60.9375 30 60.9375C46.5685 60.9375 60 47.506 60 30.9375Z" fill="#1990FF"/>
<path fill-rule="evenodd" clip-rule="evenodd" d="M36.926 27.7635L33.452 33.2735C32.898 34.1495 31.716 34.3675 30.886 33.7475L28.124 31.6755C27.87 31.4835 27.522 31.4875 27.27 31.6775L23.54 34.5095C23.042 34.8875 22.388 34.2895 22.724 33.7615L26.2 28.2515C26.752 27.3755 27.936 27.1555 28.764 27.7775L31.528 29.8495C31.782 30.0395 32.13 30.0375 32.382 29.8475L36.112 27.0155C36.61 26.6375 37.262 27.2355 36.926 27.7635ZM29.826 18.9375C23.162 18.9375 18 23.8175 18 30.4095C18 33.8575 19.412 36.8355 21.716 38.8935C21.906 39.0675 22.024 39.3075 22.034 39.5675L22.098 41.6715C22.12 42.3415 22.81 42.7775 23.424 42.5095L25.772 41.4735C25.97 41.3855 26.192 41.3695 26.4 41.4255C27.478 41.7235 28.63 41.8795 29.826 41.8795C36.488 41.8795 41.65 36.9995 41.65 30.4095C41.65 23.8175 36.488 18.9375 29.826 18.9375Z" fill="white"/>
</g>
<defs>
<clipPath id="clip0_1_140">
<rect width="60" height="60" fill="white" transform="translate(0 0.9375)"/>
</clipPath>
</defs>
</svg>
