<svg width="108" height="53" viewBox="0 0 108 53" fill="none" xmlns="http://www.w3.org/2000/svg">
<path d="M15.2946 47.9V44.7375H14.5396V44.2328H15.2946V43.7715C15.2946 43.337 15.4155 43.0055 15.6574 42.7786C15.8992 42.5516 16.2342 42.4381 16.6624 42.4381C16.9157 42.4381 17.1363 42.4635 17.3275 42.5158V43.0354C17.218 43.0085 17.115 42.9906 17.0236 42.9801C16.9304 42.9697 16.8405 42.9652 16.7507 42.9652C16.2048 42.9652 15.9319 43.2205 15.9319 43.7312V44.2343H17.2997V44.739H15.9319V47.9015H15.2946V47.9ZM18.2851 47.9V44.2328H18.9224V44.8704C19.0483 44.639 19.2101 44.4613 19.4062 44.3374C19.6022 44.2135 19.8294 44.1508 20.0876 44.1508C20.2118 44.1508 20.3295 44.1612 20.4422 44.1836V44.7659C20.3801 44.7584 20.3131 44.7525 20.2429 44.748C20.1709 44.7435 20.1023 44.7405 20.0353 44.7405C19.7428 44.7405 19.5042 44.8226 19.3228 44.9854C19.1415 45.1481 19.0074 45.3661 18.9208 45.6394V47.8984H18.2851V47.9ZM23.289 47.9821C22.8886 47.9821 22.5422 47.9 22.248 47.7357C21.9538 47.5715 21.7284 47.3445 21.5682 47.0579C21.408 46.7697 21.328 46.4412 21.328 46.0709C21.328 45.6976 21.408 45.3676 21.5682 45.0795C21.7284 44.7913 21.9555 44.5658 22.248 44.4016C22.5405 44.2373 22.8886 44.1552 23.289 44.1552H23.369C23.7694 44.1552 24.1159 44.2373 24.41 44.4016C24.7025 44.5658 24.9297 44.7928 25.0898 45.0795C25.25 45.3676 25.3301 45.6976 25.3301 46.0709C25.3301 46.4412 25.25 46.7711 25.0898 47.0579C24.9297 47.346 24.7025 47.5715 24.41 47.7357C24.1175 47.9 23.7694 47.9821 23.369 47.9821H23.289ZM23.2922 47.4431H23.3642C23.7645 47.4431 24.0816 47.3176 24.3152 47.0668C24.5489 46.8159 24.6665 46.483 24.6665 46.0679C24.6665 45.6498 24.5489 45.3168 24.3152 45.0675C24.0816 44.8181 23.7645 44.6927 23.3642 44.6927H23.2922C22.8919 44.6927 22.5748 44.8181 22.3411 45.0675C22.1075 45.3168 21.9898 45.6498 21.9898 46.0679C21.9898 46.483 22.1075 46.8159 22.3411 47.0668C22.5748 47.3176 22.8919 47.4431 23.2922 47.4431ZM26.6309 47.9V44.2328H27.2682V44.9152C27.4136 44.6793 27.5983 44.4926 27.8254 44.3568C28.0509 44.2209 28.3141 44.1522 28.6115 44.1522H28.6915C29.3583 44.1522 29.7881 44.4449 29.9777 45.0287C30.1312 44.7584 30.3306 44.5449 30.5774 44.3881C30.8241 44.2314 31.1068 44.1522 31.4272 44.1522H31.5121C31.9631 44.1522 32.3079 44.2911 32.5466 44.5673C32.7852 44.8435 32.9028 45.2392 32.9028 45.7528V47.9015H32.2655V45.8365C32.2655 45.075 31.9599 44.6942 31.3504 44.6942H31.2785C30.9908 44.6942 30.7441 44.7808 30.5365 44.9555C30.329 45.1302 30.1786 45.3512 30.0855 45.6185V47.9H29.4481V45.8365C29.4481 45.075 29.1442 44.6942 28.5363 44.6942H28.4595C28.1719 44.6942 27.9251 44.7808 27.7192 44.9555C27.5133 45.1302 27.363 45.3512 27.2698 45.6185V47.9H26.6309ZM42.4725 42.6128V43.3176C42.4725 43.3638 42.4382 43.3937 42.3892 43.3937H39.0767V44.8346H41.8107C41.8613 44.8346 41.894 44.8659 41.894 44.9107V45.6155C41.894 45.6618 41.8597 45.6916 41.8107 45.6916H39.0767V47.8223C39.0767 47.8686 39.0424 47.8984 38.9934 47.8984H38.1632C38.1126 47.8984 38.0798 47.8671 38.0798 47.8223V42.6128C38.0798 42.5665 38.1142 42.5367 38.1632 42.5367H42.3892C42.4398 42.5367 42.4725 42.568 42.4725 42.6128ZM49.2315 47.9H48.318C48.2673 47.9 48.2346 47.8776 48.2216 47.8313C48.1006 47.3908 47.9535 46.9264 47.7852 46.4591H44.9793C44.811 46.9264 44.6656 47.3908 44.5479 47.8313C44.5348 47.8776 44.5022 47.9 44.4515 47.9H43.5707C43.5119 47.9 43.4792 47.8686 43.4955 47.8164C44.0234 46.1082 44.829 44.2224 45.6428 42.6367C45.6804 42.5636 45.7262 42.5367 45.8063 42.5367H46.9975C47.0776 42.5367 47.1234 42.5636 47.161 42.6367C47.983 44.2194 48.7756 46.1082 49.3083 47.8164C49.3247 47.8701 49.2903 47.9 49.2315 47.9ZM47.4748 45.6319C47.1692 44.8585 46.8292 44.0836 46.4812 43.3788H46.2834C45.9353 44.0836 45.5922 44.857 45.285 45.6319H47.4748ZM50.7317 45.2646C50.7317 43.6013 51.9311 42.4366 53.6421 42.4366H53.768C54.8416 42.4366 55.6718 42.9353 56.1114 43.655C56.1408 43.7013 56.1326 43.7386 56.0819 43.7626L55.3433 44.0955C55.2927 44.1179 55.2306 44.1179 55.1962 44.0612C54.8857 43.5714 54.42 43.3101 53.7336 43.3101H53.6078C52.5309 43.3101 51.7873 44.091 51.7873 45.2258C51.7873 46.3635 52.5162 47.1265 53.6078 47.1265H53.7336C54.438 47.1265 54.8481 46.9085 55.1635 46.5756C55.206 46.5337 55.2518 46.5263 55.3024 46.5487L56.0607 46.8861C56.0901 46.9011 56.1032 46.9205 56.1032 46.9399C56.1032 46.9593 56.095 46.9742 56.0787 46.9966C55.6129 47.6177 54.7746 48 53.7516 48H53.6258C51.8854 48 50.7317 46.9085 50.7317 45.2646ZM62.7918 47.119V47.8238C62.7918 47.8701 62.7575 47.9 62.7085 47.9H58.306C58.2554 47.9 58.2227 47.8686 58.2227 47.8238V42.6143C58.2227 42.568 58.257 42.5382 58.306 42.5382H62.6333C62.684 42.5382 62.7167 42.5695 62.7167 42.6143V43.319C62.7167 43.3654 62.6824 43.3952 62.6333 43.3952H59.2196V44.7898H61.996C62.0467 44.7898 62.0794 44.8211 62.0794 44.8659V45.5632C62.0794 45.6095 62.045 45.6394 61.996 45.6394H59.2196V47.0414H62.7085C62.7575 47.0414 62.7918 47.0728 62.7918 47.119ZM70.3714 46.4293C70.3714 47.3684 69.5835 47.9 68.1912 47.9H65.3068C65.2562 47.9 65.2235 47.8686 65.2235 47.8238V42.6143C65.2235 42.568 65.2578 42.5382 65.3068 42.5382H67.9363C69.2909 42.5382 70.028 43.0279 70.028 43.9253C70.028 44.515 69.7011 44.9018 69.0377 45.0825C69.9692 45.2601 70.3714 45.7708 70.3714 46.4293ZM67.915 43.3713H66.2203V44.8122H67.915C68.6732 44.8122 69.0213 44.5867 69.0213 44.0925C69.0213 43.5983 68.6732 43.3713 67.915 43.3713ZM69.3482 46.3486C69.3482 45.8499 68.987 45.6244 68.1944 45.6244H66.2203V47.0653H68.1944C69.0001 47.0653 69.3482 46.8503 69.3482 46.3486ZM72.1276 45.2183C72.1276 43.6013 73.3014 42.4366 75.146 42.4366H75.2718C77.1171 42.4366 78.2902 43.6013 78.2902 45.2183C78.2902 46.8354 77.1171 48 75.2718 48H75.146C73.3026 48 72.1276 46.8354 72.1276 45.2183ZM75.2737 47.1265C76.4765 47.1265 77.2365 46.3725 77.2365 45.2183C77.2365 44.0656 76.4784 43.3101 75.2737 43.3101H75.1479C73.9451 43.3101 73.1851 44.0641 73.1851 45.2183C73.1851 46.371 73.9432 47.1265 75.1479 47.1265H75.2737ZM79.9946 45.2183C79.9946 43.6013 81.1684 42.4366 83.013 42.4366H83.1387C84.984 42.4366 86.1572 43.6013 86.1572 45.2183C86.1572 46.8354 84.984 48 83.1387 48H83.013C81.1684 48 79.9946 46.8354 79.9946 45.2183ZM83.1387 47.1265C84.3416 47.1265 85.1015 46.3725 85.1015 45.2183C85.1015 44.0656 84.3435 43.3101 83.1387 43.3101H83.013C81.8102 43.3101 81.0502 44.0641 81.0502 45.2183C81.0502 46.371 81.809 47.1265 83.013 47.1265H83.1387ZM93.3899 47.9H92.3084C92.2364 47.9 92.2073 47.885 92.1612 47.8343C91.4031 47.0175 90.506 46.2068 89.7429 45.608H89.2558V47.8223C89.2558 47.8686 89.2211 47.8984 89.1724 47.8984H88.3423C88.2918 47.8984 88.259 47.8671 88.259 47.8223V42.6128C88.259 42.5665 88.2931 42.5367 88.3423 42.5367H89.1724C89.223 42.5367 89.2558 42.568 89.2558 42.6128V44.7271H89.7511C90.5679 44.0522 91.3229 43.3251 91.9388 42.5934C91.9818 42.5441 92.014 42.5367 92.0645 42.5367H93.0879C93.1385 42.5367 93.1631 42.5591 93.1631 42.5904C93.1631 42.6053 93.1549 42.6248 93.1334 42.6472C92.2313 43.6625 91.3393 44.4942 90.5124 45.1377C91.5516 45.9425 92.5371 46.8384 93.4341 47.8044C93.4815 47.8537 93.4569 47.9 93.3899 47.9ZM101.064 6H96.0685V30.3886H101.064V6ZM77.6907 21.2597C77.6907 18.2286 79.7773 15.9128 83.1324 15.9128C86.3385 15.9128 88.6121 18.1943 88.6121 21.2597C88.6121 24.3594 86.4497 26.6409 83.1324 26.6409C79.8904 26.6409 77.6907 24.3594 77.6907 21.2597ZM88.6885 30.3886H93.4607V12.1651H88.6134V13.8C87.607 12.7787 85.4825 11.859 82.8349 11.859C76.7589 11.859 72.6949 15.8785 72.6949 21.2597C72.6949 26.9141 76.7949 30.6947 82.8349 30.6947C86.0409 30.6947 87.9418 29.4689 88.6873 28.5835V30.3886H88.6885ZM68.4085 9.09972H63.4128V12.1651H61.4747V16.2189H63.4128V25.3135C63.4128 28.9239 65.4996 30.5589 69.4887 30.5589C70.8307 30.5589 71.837 30.423 72.0234 30.3886V26.3692H70.9412C69.041 26.3692 68.4069 25.6883 68.4069 23.9174V16.2189H71.9103V12.1651H68.4069V9.09972H68.4085ZM60.169 12.1308C60.0579 12.0964 59.8716 12.0621 59.4974 12.0621C57.4089 12.0621 56.6261 13.2207 56.2911 13.6627V12.1651H51.6304V30.3886H56.6261V19.4545C56.6261 17.615 57.4089 16.525 60.1674 16.3548V12.1308H60.169ZM34.0369 21.2941C34.0369 18.2286 36.1613 15.98 39.4428 15.98C42.649 15.98 44.8862 18.2615 44.8862 21.2941C44.8862 24.3266 42.7618 26.5737 39.4803 26.5737C36.2741 26.5722 34.0369 24.3594 34.0369 21.2941ZM29.0412 21.3269C29.0412 26.7081 33.2166 30.6933 39.4428 30.6933C45.5938 30.6933 49.8803 26.6065 49.8803 21.2582C49.8803 15.877 45.7425 11.8575 39.4428 11.8575C33.4405 11.859 29.0412 15.9114 29.0412 21.3269ZM11.7827 21.2941C11.7827 18.1943 13.8712 15.9128 17.2621 15.9128C20.5795 15.9128 22.7791 18.1943 22.7791 21.2941C22.7791 24.3938 20.6922 26.6424 17.2997 26.6424C13.9823 26.6409 11.7827 24.3938 11.7827 21.2941ZM11.9315 28.9567C12.8629 29.7063 14.8027 30.6933 17.5612 30.6933C23.8985 30.6933 27.7764 26.5035 27.7764 21.2238C27.7764 15.7396 23.8249 11.8575 17.7851 11.8575C14.1686 11.8575 12.4544 13.2536 11.7827 13.936V12.1651H6.93578V35.837H11.9315V28.9567Z" fill="#1B365D"/>
</svg>
