<svg width="96" height="42" viewBox="0 0 96 42" fill="none" xmlns="http://www.w3.org/2000/svg">
<path d="M9.29458 41.9V38.7375H8.53959V38.2328H9.29458V37.7715C9.29458 37.337 9.41549 37.0055 9.65738 36.7786C9.89921 36.5516 10.2342 36.4381 10.6624 36.4381C10.9157 36.4381 11.1363 36.4635 11.3275 36.5158V37.0354C11.218 37.0085 11.115 36.9906 11.0236 36.9801C10.9304 36.9697 10.8405 36.9652 10.7507 36.9652C10.2048 36.9652 9.93193 37.2205 9.93193 37.7312V38.2343H11.2997V38.739H9.93193V41.9015H9.29458V41.9ZM12.2851 41.9V38.2328H12.9224V38.8704C13.0483 38.639 13.2101 38.4613 13.4062 38.3374C13.6022 38.2135 13.8294 38.1508 14.0876 38.1508C14.2118 38.1508 14.3295 38.1612 14.4422 38.1836V38.7659C14.3801 38.7584 14.3131 38.7525 14.2429 38.748C14.1709 38.7435 14.1023 38.7405 14.0353 38.7405C13.7428 38.7405 13.5042 38.8226 13.3228 38.9854C13.1415 39.1481 13.0074 39.3661 12.9208 39.6394V41.8984H12.2851V41.9ZM17.289 41.9821C16.8886 41.9821 16.5422 41.9 16.248 41.7357C15.9538 41.5715 15.7284 41.3445 15.5682 41.0579C15.408 40.7697 15.328 40.4412 15.328 40.0709C15.328 39.6976 15.408 39.3676 15.5682 39.0795C15.7284 38.7913 15.9555 38.5658 16.248 38.4016C16.5405 38.2373 16.8886 38.1552 17.289 38.1552H17.369C17.7694 38.1552 18.1159 38.2373 18.41 38.4016C18.7025 38.5658 18.9297 38.7928 19.0898 39.0795C19.25 39.3676 19.3301 39.6976 19.3301 40.0709C19.3301 40.4412 19.25 40.7711 19.0898 41.0579C18.9297 41.346 18.7025 41.5715 18.41 41.7357C18.1175 41.9 17.7694 41.9821 17.369 41.9821H17.289ZM17.2922 41.4431H17.3642C17.7645 41.4431 18.0816 41.3176 18.3152 41.0668C18.5489 40.8159 18.6665 40.483 18.6665 40.0679C18.6665 39.6498 18.5489 39.3168 18.3152 39.0675C18.0816 38.8181 17.7645 38.6927 17.3642 38.6927H17.2922C16.8919 38.6927 16.5748 38.8181 16.3411 39.0675C16.1075 39.3168 15.9898 39.6498 15.9898 40.0679C15.9898 40.483 16.1075 40.8159 16.3411 41.0668C16.5748 41.3176 16.8919 41.4431 17.2922 41.4431ZM20.6309 41.9V38.2328H21.2682V38.9152C21.4136 38.6793 21.5983 38.4926 21.8254 38.3568C22.0509 38.2209 22.3141 38.1522 22.6115 38.1522H22.6915C23.3583 38.1522 23.7881 38.4449 23.9777 39.0287C24.1312 38.7584 24.3306 38.5449 24.5774 38.3881C24.8241 38.2314 25.1068 38.1522 25.4272 38.1522H25.5121C25.9631 38.1522 26.3079 38.2911 26.5466 38.5673C26.7852 38.8435 26.9028 39.2392 26.9028 39.7528V41.9015H26.2655V39.8365C26.2655 39.075 25.9599 38.6942 25.3504 38.6942H25.2785C24.9908 38.6942 24.7441 38.7808 24.5365 38.9555C24.329 39.1302 24.1786 39.3512 24.0855 39.6185V41.9H23.4481V39.8365C23.4481 39.075 23.1442 38.6942 22.5363 38.6942H22.4595C22.1719 38.6942 21.9251 38.7808 21.7192 38.9555C21.5133 39.1302 21.363 39.3512 21.2698 39.6185V41.9H20.6309ZM36.4725 36.6128V37.3176C36.4725 37.3638 36.4382 37.3937 36.3892 37.3937H33.0767V38.8346H35.8107C35.8613 38.8346 35.894 38.8659 35.894 38.9107V39.6155C35.894 39.6618 35.8597 39.6916 35.8107 39.6916H33.0767V41.8223C33.0767 41.8686 33.0424 41.8984 32.9934 41.8984H32.1632C32.1126 41.8984 32.0798 41.8671 32.0798 41.8223V36.6128C32.0798 36.5665 32.1142 36.5367 32.1632 36.5367H36.3892C36.4398 36.5367 36.4725 36.568 36.4725 36.6128ZM43.2315 41.9H42.318C42.2673 41.9 42.2346 41.8776 42.2216 41.8313C42.1006 41.3908 41.9535 40.9264 41.7852 40.4591H38.9793C38.811 40.9264 38.6656 41.3908 38.5479 41.8313C38.5348 41.8776 38.5022 41.9 38.4515 41.9H37.5707C37.5119 41.9 37.4792 41.8686 37.4955 41.8164C38.0234 40.1082 38.829 38.2224 39.6428 36.6367C39.6804 36.5636 39.7262 36.5367 39.8063 36.5367H40.9975C41.0776 36.5367 41.1234 36.5636 41.161 36.6367C41.983 38.2194 42.7756 40.1082 43.3083 41.8164C43.3247 41.8701 43.2903 41.9 43.2315 41.9ZM41.4748 39.6319C41.1692 38.8585 40.8292 38.0836 40.4812 37.3788H40.2834C39.9353 38.0836 39.5922 38.857 39.285 39.6319H41.4748ZM44.7317 39.2646C44.7317 37.6013 45.9311 36.4366 47.6421 36.4366H47.768C48.8416 36.4366 49.6718 36.9353 50.1114 37.655C50.1408 37.7013 50.1326 37.7386 50.0819 37.7626L49.3433 38.0955C49.2927 38.1179 49.2306 38.1179 49.1962 38.0612C48.8857 37.5714 48.42 37.3101 47.7336 37.3101H47.6078C46.5309 37.3101 45.7873 38.091 45.7873 39.2258C45.7873 40.3635 46.5162 41.1265 47.6078 41.1265H47.7336C48.438 41.1265 48.8481 40.9085 49.1635 40.5756C49.206 40.5337 49.2518 40.5263 49.3024 40.5487L50.0607 40.8861C50.0901 40.9011 50.1032 40.9205 50.1032 40.9399C50.1032 40.9593 50.095 40.9742 50.0787 40.9966C49.6129 41.6177 48.7746 42 47.7516 42H47.6258C45.8854 42 44.7317 40.9085 44.7317 39.2646ZM56.7918 41.119V41.8238C56.7918 41.8701 56.7575 41.9 56.7085 41.9H52.306C52.2554 41.9 52.2227 41.8686 52.2227 41.8238V36.6143C52.2227 36.568 52.257 36.5382 52.306 36.5382H56.6333C56.684 36.5382 56.7167 36.5695 56.7167 36.6143V37.319C56.7167 37.3654 56.6824 37.3952 56.6333 37.3952H53.2196V38.7898H55.996C56.0467 38.7898 56.0794 38.8211 56.0794 38.8659V39.5632C56.0794 39.6095 56.045 39.6394 55.996 39.6394H53.2196V41.0414H56.7085C56.7575 41.0414 56.7918 41.0728 56.7918 41.119ZM64.3714 40.4293C64.3714 41.3684 63.5835 41.9 62.1912 41.9H59.3068C59.2562 41.9 59.2235 41.8686 59.2235 41.8238V36.6143C59.2235 36.568 59.2578 36.5382 59.3068 36.5382H61.9363C63.2909 36.5382 64.028 37.0279 64.028 37.9253C64.028 38.515 63.7011 38.9018 63.0377 39.0825C63.9692 39.2601 64.3714 39.7708 64.3714 40.4293ZM61.915 37.3713H60.2203V38.8122H61.915C62.6732 38.8122 63.0213 38.5867 63.0213 38.0925C63.0213 37.5983 62.6732 37.3713 61.915 37.3713ZM63.3482 40.3486C63.3482 39.8499 62.987 39.6244 62.1944 39.6244H60.2203V41.0653H62.1944C63.0001 41.0653 63.3482 40.8503 63.3482 40.3486ZM66.1276 39.2183C66.1276 37.6013 67.3014 36.4366 69.146 36.4366H69.2718C71.1171 36.4366 72.2902 37.6013 72.2902 39.2183C72.2902 40.8354 71.1171 42 69.2718 42H69.146C67.3026 42 66.1276 40.8354 66.1276 39.2183ZM69.2737 41.1265C70.4765 41.1265 71.2365 40.3725 71.2365 39.2183C71.2365 38.0656 70.4784 37.3101 69.2737 37.3101H69.1479C67.9451 37.3101 67.1851 38.0641 67.1851 39.2183C67.1851 40.371 67.9432 41.1265 69.1479 41.1265H69.2737ZM73.9946 39.2183C73.9946 37.6013 75.1684 36.4366 77.013 36.4366H77.1387C78.984 36.4366 80.1572 37.6013 80.1572 39.2183C80.1572 40.8354 78.984 42 77.1387 42H77.013C75.1684 42 73.9946 40.8354 73.9946 39.2183ZM77.1387 41.1265C78.3416 41.1265 79.1015 40.3725 79.1015 39.2183C79.1015 38.0656 78.3435 37.3101 77.1387 37.3101H77.013C75.8102 37.3101 75.0502 38.0641 75.0502 39.2183C75.0502 40.371 75.809 41.1265 77.013 41.1265H77.1387ZM87.3899 41.9H86.3084C86.2364 41.9 86.2073 41.885 86.1612 41.8343C85.4031 41.0175 84.506 40.2068 83.7429 39.608H83.2558V41.8223C83.2558 41.8686 83.2211 41.8984 83.1724 41.8984H82.3423C82.2918 41.8984 82.259 41.8671 82.259 41.8223V36.6128C82.259 36.5665 82.2931 36.5367 82.3423 36.5367H83.1724C83.223 36.5367 83.2558 36.568 83.2558 36.6128V38.7271H83.7511C84.5679 38.0522 85.3229 37.3251 85.9388 36.5934C85.9818 36.5441 86.014 36.5367 86.0645 36.5367H87.0879C87.1385 36.5367 87.1631 36.5591 87.1631 36.5904C87.1631 36.6053 87.1549 36.6248 87.1334 36.6472C86.2313 37.6625 85.3393 38.4942 84.5124 39.1377C85.5516 39.9425 86.5371 40.8384 87.4341 41.8044C87.4815 41.8537 87.4569 41.9 87.3899 41.9ZM95.0642 0H90.0685V24.3886H95.0642V0ZM71.6907 15.2597C71.6907 12.2286 73.7773 9.91282 77.1324 9.91282C80.3385 9.91282 82.6121 12.1943 82.6121 15.2597C82.6121 18.3594 80.4497 20.6409 77.1324 20.6409C73.8904 20.6409 71.6907 18.3594 71.6907 15.2597ZM82.6885 24.3886H87.4607V6.16507H82.6134V7.80004C81.607 6.77874 79.4825 5.859 76.8349 5.859C70.7589 5.859 66.6949 9.87852 66.6949 15.2597C66.6949 20.9141 70.7949 24.6947 76.8349 24.6947C80.0409 24.6947 81.9418 23.4689 82.6873 22.5835V24.3886H82.6885ZM62.4085 3.09972H57.4128V6.16507H55.4747V10.2189H57.4128V19.3135C57.4128 22.9239 59.4996 24.5589 63.4887 24.5589C64.8307 24.5589 65.837 24.423 66.0234 24.3886V20.3692H64.9412C63.041 20.3692 62.4069 19.6883 62.4069 17.9174V10.2189H65.9103V6.16507H62.4069V3.09972H62.4085ZM54.169 6.13077C54.0579 6.09642 53.8716 6.06206 53.4974 6.06206C51.4089 6.06206 50.6261 7.22073 50.2911 7.66272V6.16507H45.6304V24.3886H50.6261V13.4545C50.6261 11.615 51.4089 10.525 54.1674 10.3548V6.13077H54.169ZM28.0369 15.2941C28.0369 12.2286 30.1613 9.98002 33.4428 9.98002C36.649 9.98002 38.8862 12.2615 38.8862 15.2941C38.8862 18.3266 36.7618 20.5737 33.4803 20.5737C30.2741 20.5722 28.0369 18.3594 28.0369 15.2941ZM23.0412 15.3269C23.0412 20.7081 27.2166 24.6933 33.4428 24.6933C39.5938 24.6933 43.8803 20.6065 43.8803 15.2582C43.8803 9.877 39.7425 5.85754 33.4428 5.85754C27.4405 5.859 23.0412 9.91136 23.0412 15.3269ZM5.78275 15.2941C5.78275 12.1943 7.87122 9.91282 11.2621 9.91282C14.5795 9.91282 16.7791 12.1943 16.7791 15.2941C16.7791 18.3938 14.6922 20.6424 11.2997 20.6424C7.98234 20.6409 5.78275 18.3938 5.78275 15.2941ZM5.93145 22.9567C6.86293 23.7063 8.80271 24.6933 11.5612 24.6933C17.8985 24.6933 21.7764 20.5035 21.7764 15.2238C21.7764 9.73962 17.8249 5.85754 11.7851 5.85754C8.16864 5.85754 6.45439 7.25357 5.78275 7.93596V6.16507H0.935783V29.837H5.93145V22.9567Z" fill="#1B365D"/>
</svg>
