<svg width="60" height="61" viewBox="0 0 60 61" fill="none" xmlns="http://www.w3.org/2000/svg">
<g clip-path="url(#clip0_1_147)">
<path d="M60 30.9375C60 14.369 46.5685 0.9375 30 0.9375C13.4315 0.9375 0 14.369 0 30.9375C0 47.506 13.4315 60.9375 30 60.9375C46.5685 60.9375 60 47.506 60 30.9375Z" fill="#25D366"/>
<path fill-rule="evenodd" clip-rule="evenodd" d="M30.797 40.3395C36.137 40.1875 40.355 35.7175 40.201 30.3795C40.051 25.1335 35.737 20.9695 30.523 20.9695C30.429 20.9695 30.337 20.9715 30.243 20.9735C24.903 21.1295 20.683 25.5955 20.839 30.9355C20.885 32.5655 21.343 34.1655 22.167 35.5615L22.343 35.8655L21.577 40.0735L25.741 39.0915L26.057 39.2555C27.427 39.9675 28.967 40.3435 30.519 40.3435C30.611 40.3435 30.705 40.3415 30.797 40.3395ZM38.631 22.1995C40.843 24.3195 42.119 27.1655 42.233 30.2275C42.339 33.2195 41.295 36.1575 39.315 38.4035C37.143 40.8655 34.119 42.2795 30.855 42.3735C30.745 42.3755 30.633 42.3775 30.519 42.3775C28.761 42.3775 27.019 41.9795 25.439 41.2195L19.307 42.5855C19.299 42.5875 19.295 42.5875 19.289 42.5875C19.235 42.5875 19.191 42.5415 19.199 42.4855L20.237 36.2835C19.351 34.6655 18.857 32.8455 18.805 30.9935C18.715 27.8655 19.849 24.8855 21.999 22.6115C24.227 20.2515 27.269 18.9375 30.529 18.9375H30.589C33.583 18.9515 36.471 20.1275 38.631 22.1995ZM35.762 33.1931C36.052 33.3491 36.244 33.4291 36.314 33.5531C36.386 33.6791 36.366 34.2671 36.1 34.9471C35.834 35.6271 34.614 36.2531 34.072 36.2851C33.914 36.2951 33.758 36.3171 33.554 36.3171C33.064 36.3171 32.302 36.1891 30.564 35.4411C27.614 34.1691 25.818 31.0451 25.678 30.8431C25.538 30.6431 24.528 29.2111 24.57 27.7631C24.616 26.3151 25.396 25.6271 25.676 25.3391C25.944 25.0671 26.248 24.9951 26.448 24.9951H26.47C26.668 25.0011 26.864 25.0071 27.036 25.0191C27.244 25.0351 27.474 25.0531 27.682 25.5491C27.924 26.1391 28.452 27.6111 28.52 27.7611C28.59 27.9091 28.634 28.0831 28.53 28.2771C28.424 28.4711 28.374 28.5911 28.22 28.7591C28.068 28.9271 27.898 29.1351 27.764 29.2611C27.612 29.4031 27.454 29.5591 27.616 29.8571C27.778 30.1571 28.338 31.1411 29.19 31.9471C30.282 32.9851 31.158 33.3251 31.506 33.4871C31.632 33.5471 31.736 33.5731 31.828 33.5731C31.954 33.5731 32.054 33.5211 32.148 33.4251C32.332 33.2391 32.884 32.5971 33.116 32.3011C33.236 32.1471 33.346 32.0911 33.466 32.0911C33.56 32.0911 33.662 32.1271 33.782 32.1731C34.048 32.2791 35.47 33.0371 35.762 33.1931Z" fill="white"/>
</g>
<defs>
<clipPath id="clip0_1_147">
<rect width="60" height="60" fill="white" transform="translate(0 0.9375)"/>
</clipPath>
</defs>
</svg>
